<?xml version="1.0" encoding="utf-8"?>
<!-- Generator: Adobe Illustrator 25.3.0, SVG Export Plug-In . SVG Version: 6.00 Build 0)  -->
<svg version="1.1" id="Calque_1" xmlns="http://www.w3.org/2000/svg" xmlns:xlink="http://www.w3.org/1999/xlink" x="0px" y="0px"
	 viewBox="0 0 841 600" style="enable-background:new 0 0 841 600;" xml:space="preserve">
<style type="text/css">
	.st0{fill:#FFFFFF;}
	.st1{fill:url(#XMLID_2_);}
	.st2{fill:#FCC155;}
	.st3{fill:#E09736;}
	.st4{fill:#FDC756;}
	.st5{fill:#55BAA1;}
	.st6{fill:none;stroke:#4057A3;stroke-width:1.6056;stroke-linecap:round;stroke-miterlimit:2.4;}
	.st7{fill:#4057A3;}
	.st8{fill:#B0DCE1;}
	.st9{fill:#1D4274;}
	.st10{clip-path:url(#SVGID_2_);}
	.st11{fill:none;stroke:#B0DCE1;stroke-width:0.8423;stroke-linecap:round;stroke-miterlimit:2.4;}
	.st12{clip-path:url(#SVGID_4_);}
	.st13{clip-path:url(#SVGID_6_);}
	.st14{fill:#F3988E;}
	.st15{clip-path:url(#SVGID_8_);}
	.st16{clip-path:url(#SVGID_10_);}
	.st17{clip-path:url(#SVGID_12_);}
	.st18{fill:#88B7E3;}
	.st19{fill:#507FAD;}
	.st20{clip-path:url(#SVGID_16_);fill:none;stroke:#284E7A;stroke-width:0.8423;stroke-miterlimit:2.4;}
	.st21{clip-path:url(#SVGID_18_);fill:none;stroke:#284E7A;stroke-width:0.8423;stroke-miterlimit:2.4;}
	.st22{clip-path:url(#SVGID_22_);fill:none;stroke:#284E7A;stroke-width:0.8423;stroke-miterlimit:2.4;}
	.st23{fill:#1A2441;}
	.st24{fill:#08AB9A;}
	.st25{fill:#61BFBA;}
	.st26{fill:#BA5A65;}
	.st27{fill:none;stroke:#1A2441;stroke-width:1.2043;stroke-linecap:round;stroke-miterlimit:2.4;}
	.st28{fill:#DE7B7A;}
	.st29{fill:#2C4093;}
	.st30{fill:#97CDA8;}
	.st31{fill:#21A482;}
	.st32{fill:#4EB797;}
	.st33{fill:#6687C4;}
	.st34{fill:#E5F4FD;}
	.st35{fill:#8FC9C6;}
	.st36{fill:#238D7F;}
	.st37{clip-path:url(#SVGID_24_);}
	.st38{fill:none;stroke:#8FC9C6;stroke-width:0.8029;stroke-linecap:round;stroke-miterlimit:2.4;}
	.st39{clip-path:url(#SVGID_26_);}
	.st40{clip-path:url(#SVGID_28_);}
	.st41{clip-path:url(#SVGID_30_);}
	.st42{fill:none;stroke:#B0DCE1;stroke-width:0.8029;stroke-linecap:round;stroke-miterlimit:2.4;}
	.st43{clip-path:url(#SVGID_32_);}
	.st44{clip-path:url(#SVGID_34_);}
	.st45{clip-path:url(#SVGID_36_);fill:none;stroke:#284E7A;stroke-width:0.8029;stroke-miterlimit:2.4;}
	.st46{clip-path:url(#SVGID_38_);fill:none;stroke:#284E7A;stroke-width:0.8029;stroke-miterlimit:2.4;}
	.st47{clip-path:url(#SVGID_40_);fill:none;stroke:#284E7A;stroke-width:0.8029;stroke-miterlimit:2.4;}
</style>
<g id="XMLID_2059_">
	<g transform="matrix(0.24 0 0 0.24 -24.1159 -23.3959)">
		<g>
			<rect id="XMLID_2666_" x="108.55" y="100.73" class="st0" width="3496.91" height="2495.02"/>
			
				<linearGradient id="XMLID_2_" gradientUnits="userSpaceOnUse" x1="7838.0239" y1="2203.728" x2="7838.0239" y2="166.5204" gradientTransform="matrix(0.24 0 0 -0.24 -24.1159 623.3959)">
				<stop  offset="0" style="stop-color:#6786C4"/>
				<stop  offset="0.1761" style="stop-color:#80A1CF;stop-opacity:0.8131"/>
				<stop  offset="0.4323" style="stop-color:#A0C3DB;stop-opacity:0.5411"/>
				<stop  offset="0.6337" style="stop-color:#B5D9E0;stop-opacity:0.3274"/>
				<stop  offset="0.7537" style="stop-color:#BCE1E2;stop-opacity:0.2"/>
			</linearGradient>
			<polygon id="XMLID_2665_" class="st1" points="108.55,100.73 1768.37,2137.94 3605.47,2137.94 3605.47,100.73 			"/>
			<g id="XMLID_2581_">
				<g id="XMLID_2659_">
					<g id="XMLID_2664_">
						<rect x="2174.45" y="1286.74" class="st2" width="1030.18" height="855.2"/>
					</g>
					<g id="XMLID_2663_">
						<path class="st3" d="M2174.45,1286.74l483.53,541.49c17.89,20.02,45.24,20.02,63.13,0l483.53-541.49H2174.45z"/>
					</g>
					<g id="XMLID_2662_">
						<polygon class="st3" points="3204.63,2141.93 2689.56,1482.1 3204.63,2085.76 						"/>
					</g>
					<g id="XMLID_2661_">
						<polygon class="st3" points="2174.45,2141.93 2689.56,1482.1 2174.45,2085.76 						"/>
					</g>
					<g id="XMLID_2660_">
						<path class="st4" d="M2174.45,1286.74l476.12,493.72c22.51,23.34,55.43,23.34,77.95,0l476.12-493.72H2174.45z"/>
					</g>
				</g>
				<g id="XMLID_2656_">
					<path id="XMLID_2658_" class="st5" d="M3122.32,2141.93c0,0-32.58-18.06-30.21-61c2.37-42.94,26.26-51.72,46.9-67.33
						c20.68-15.6,22.26-41.99,23.05-74.15c0.79-32.21,18.27-64.41,53.27-62.46c35,1.96,47.9,10.74,73.24-26.34
						c25.34-37.08,59.55-36.12,73.87-15.6c14.32,20.51,15.23,55.76-6.49,80.06c-26.43,29.59-33.25,37.03-40.87,69.57
						c-10.36,44.15,4.58,87.18-8.74,107.69c-17.77,27.42-36.95,20.68-55.26,29.59c-18.27,8.91-18.93,20.02-18.93,20.02h-109.82
						V2141.93z"/>
					<path id="XMLID_2657_" class="st6" d="M3330.89,1863.55c-53.52,38.28-146.61,154.75-162.42,278.38"/>
				</g>
				<g id="XMLID_2605_">
					<path id="XMLID_2655_" class="st7" d="M2517.9,877.99c0-10.86,7.2-19.68,16.02-19.68c8.86,0,16.02,8.82,16.02,19.68
						c0,10.86-7.2,19.68-16.02,19.68C2525.06,897.67,2517.9,888.89,2517.9,877.99z"/>
					<g id="XMLID_2647_">
						<g id="XMLID_2654_">
							<path class="st8" d="M2360.39,1517.3c-2.16,3-2.41,10.32,7.74,19.43c10.15,9.11,31.09,12.69,39.58,13.15
								c8.49,0.46,14.02-1,25.43,5.66c11.4,6.66,31.38,11.11,38.54,6.7c2.66-2.33,2.46-8.82,2.46-8.82L2360.39,1517.3z"/>
						</g>
						<g id="XMLID_2649_">
							<g>
								<path id="SVGID_13_" class="st9" d="M2476.62,1506.03c-0.33,10.61,1.71,36.41-2.5,47.4c-10.15,6.28-28.34,1.54-41.07-6.7
									c-12.73-8.2-23.93-2.5-41.2-6.32c-16.94-3.74-29.71-13.57-31.46-23.14c-1.87-10.44,28.71-9.07,50.02-10.69
									c23.89-1.79,37.99-11.86,37.99-11.86L2476.62,1506.03z"/>
							</g>
							<g>
								<defs>
									<path id="SVGID_1_" d="M2476.62,1506.03c-0.33,10.61,1.71,36.41-2.5,47.4c-10.15,6.28-28.34,1.54-41.07-6.7
										c-12.73-8.2-23.93-2.5-41.2-6.32c-16.94-3.74-29.71-13.57-31.46-23.14c-1.87-10.44,28.71-9.07,50.02-10.69
										c23.89-1.79,37.99-11.86,37.99-11.86L2476.62,1506.03z"/>
								</defs>
								<clipPath id="SVGID_2_">
									<use xlink:href="#SVGID_1_"  style="overflow:visible;"/>
								</clipPath>
								<g id="XMLID_2653_" class="st10">
									<path class="st11" d="M2437.29,1515.1c0,0-1.29-14.94-5.74-20.97"/>
								</g>
							</g>
							<g>
								<defs>
									<path id="SVGID_3_" d="M2476.62,1506.03c-0.33,10.61,1.71,36.41-2.5,47.4c-10.15,6.28-28.34,1.54-41.07-6.7
										c-12.73-8.2-23.93-2.5-41.2-6.32c-16.94-3.74-29.71-13.57-31.46-23.14c-1.87-10.44,28.71-9.07,50.02-10.69
										c23.89-1.79,37.99-11.86,37.99-11.86L2476.62,1506.03z"/>
								</defs>
								<clipPath id="SVGID_4_">
									<use xlink:href="#SVGID_3_"  style="overflow:visible;"/>
								</clipPath>
								<g id="XMLID_2652_" class="st12">
									<path class="st11" d="M2420.73,1517.97c0,0-1.29-14.94-5.74-20.97"/>
								</g>
							</g>
							<g>
								<defs>
									<path id="SVGID_5_" d="M2476.62,1506.03c-0.33,10.61,1.71,36.41-2.5,47.4c-10.15,6.28-28.34,1.54-41.07-6.7
										c-12.73-8.2-23.93-2.5-41.2-6.32c-16.94-3.74-29.71-13.57-31.46-23.14c-1.87-10.44,28.71-9.07,50.02-10.69
										c23.89-1.79,37.99-11.86,37.99-11.86L2476.62,1506.03z"/>
								</defs>
								<clipPath id="SVGID_6_">
									<use xlink:href="#SVGID_5_"  style="overflow:visible;"/>
								</clipPath>
								<g id="XMLID_2651_" class="st13">
									<path class="st11" d="M2404.16,1520.88c0,0-1.29-14.94-5.74-20.97"/>
								</g>
							</g>
						</g>
						<g id="XMLID_2648_">
							<path class="st14" d="M2485.56,1469.04l-8.99,36.99c0,0-4.12,0.42-6.16,2.25s-5.7,8.78-8.41,8.11
								c-10.74-2.62-13.61-21.64-13.61-21.64l7.62-38.7L2485.56,1469.04z"/>
						</g>
					</g>
					<g id="XMLID_2646_">
						<path class="st9" d="M2640.58,1141.43l-4.08,38.99l-110.86-2.79c0,0-26.09-0.62-33.83,31.92
							c-7.74,32.54-36.7,251.04-36.7,251.04s15.56,14.11,31.38,11.03c0,0,52.27-132.7,59.76-169.11c7.49-36.45,3.7-67.16,3.7-67.16
							l133.63-14.23L2640.58,1141.43z"/>
					</g>
					<g id="XMLID_2638_">
						<g id="XMLID_2645_">
							<path class="st8" d="M2479.28,1605.31c0.17,4.04,4.16,9.45,16.6,7.24c12.44-2.21,29.46-17.56,35.79-24.55
								c6.33-6.99,9.45-12.73,21.39-17.77c11.94-5.03,28.76-18.97,31.38-28.3c0.58-3.91-3.29-8.41-3.29-8.41L2479.28,1605.31z"/>
						</g>
						<g id="XMLID_2640_">
							<g>
								<path id="SVGID_15_" class="st9" d="M2555.93,1497.5c5.78,7.86,21.97,24.59,25.22,36.04c-3.7,13.19-19.39,25.42-33.17,30.5
									c-13.77,5.08-18.52,18.77-33.04,30.83c-14.23,11.86-28.96,15.81-35.66,10.44c-7.28-5.87,15.36-31.13,29.67-50.6
									c16.02-21.8,20.43-41.11,20.43-41.11L2555.93,1497.5z"/>
							</g>
							<g>
								<defs>
									<path id="SVGID_7_" d="M2555.93,1497.5c5.78,7.86,21.97,24.59,25.22,36.04c-3.7,13.19-19.39,25.42-33.17,30.5
										c-13.77,5.08-18.52,18.77-33.04,30.83c-14.23,11.86-28.96,15.81-35.66,10.44c-7.28-5.87,15.36-31.13,29.67-50.6
										c16.02-21.8,20.43-41.11,20.43-41.11L2555.93,1497.5z"/>
								</defs>
								<clipPath id="SVGID_8_">
									<use xlink:href="#SVGID_7_"  style="overflow:visible;"/>
								</clipPath>
								<g id="XMLID_2644_" class="st15">
									<path class="st11" d="M2533,1537.69c0,0-9.45-9.57-16.06-10.03"/>
								</g>
							</g>
							<g>
								<defs>
									<path id="SVGID_9_" d="M2555.93,1497.5c5.78,7.86,21.97,24.59,25.22,36.04c-3.7,13.19-19.39,25.42-33.17,30.5
										c-13.77,5.08-18.52,18.77-33.04,30.83c-14.23,11.86-28.96,15.81-35.66,10.44c-7.28-5.87,15.36-31.13,29.67-50.6
										c16.02-21.8,20.43-41.11,20.43-41.11L2555.93,1497.5z"/>
								</defs>
								<clipPath id="SVGID_10_">
									<use xlink:href="#SVGID_9_"  style="overflow:visible;"/>
								</clipPath>
								<g id="XMLID_2643_" class="st16">
									<path class="st11" d="M2522.81,1553.96c0,0-9.45-9.57-16.06-10.03"/>
								</g>
							</g>
							<g>
								<defs>
									<path id="SVGID_11_" d="M2555.93,1497.5c5.78,7.86,21.97,24.59,25.22,36.04c-3.7,13.19-19.39,25.42-33.17,30.5
										c-13.77,5.08-18.52,18.77-33.04,30.83c-14.23,11.86-28.96,15.81-35.66,10.44c-7.28-5.87,15.36-31.13,29.67-50.6
										c16.02-21.8,20.43-41.11,20.43-41.11L2555.93,1497.5z"/>
								</defs>
								<clipPath id="SVGID_12_">
									<use xlink:href="#SVGID_11_"  style="overflow:visible;"/>
								</clipPath>
								<g id="XMLID_2642_" class="st17">
									<path class="st11" d="M2512.61,1570.28c0,0-9.45-9.57-16.06-10.03"/>
								</g>
							</g>
						</g>
						<g id="XMLID_2639_">
							<path class="st14" d="M2551.07,1465.04l4.87,32.46c0,0-2.71,3.83-3.12,6.91c-0.42,3.04,0.92,11.19-1.37,13.02
								c-9.16,7.32-22.06-3.79-22.06-3.79l-10.7-40.15L2551.07,1465.04z"/>
						</g>
					</g>
					<g id="XMLID_2637_">
						<path class="st18" d="M2723.98,1125.16c4.04,12.77,13.11,28,18.81,39.91c5.7,11.9,23.26,43.61,13.11,76.98
							c-10.9,35.79-35.12,44.69-60.22,44.69c-25.09,0-41.24,0-58.34,0c-17.1,0-122.27-31.71-122.27-31.71s12.15,8.57,18.06,31.71
							c5.95,23.18,17.89,178.3,17.89,178.3c-7.74,9.57-18.6,13.52-32.38,12.19c0,0-31.5-120.3-44.57-164.82
							c-13.65-46.48-28.92-91.79-25.97-111.89c4.12-28.13,43.9-29,76.7-27.59c32.83,1.41,108.37,4.87,123.72,2.25l-7.95-33.71
							L2723.98,1125.16z"/>
					</g>
					<g id="XMLID_2636_">
						<path class="st19" d="M2755.9,1242.05c10.15-33.37-7.41-65.08-13.11-76.98c-5.7-11.9-14.77-27.09-18.81-39.86l-83.4,16.27
							l5.08,21.55c0,0,46.23,7.78,66.42-21.55c0,0,14.73,27.51,19.02,44.02c5.91,22.76,4.29,59.67-32.04,68.58
							c-36.33,8.86-170.33-15.31-188.1-17.73c-17.73-2.41-11.82,10.15-1.96,35.74c9.86,25.59,13.98,71.45,22.85,126.37
							c5.66,35.08,12.07,73.28,12.07,73.28c2.62-1.83,5.04-3.99,7.12-6.66c0,0-11.94-155.13-17.89-178.3
							c-5.95-23.18-18.06-31.71-18.06-31.71s105.16,31.71,122.27,31.71s33.29,0,58.34,0
							C2720.77,1286.74,2744.99,1277.83,2755.9,1242.05z"/>
					</g>
					<g id="XMLID_2631_">
						<g>
							<defs>
								<path id="SVGID_14_" d="M2723.98,1125.16c4.04,12.77,13.11,28,18.81,39.91c5.7,11.9,23.26,43.61,13.11,76.98
									c-10.9,35.79-35.12,44.69-60.22,44.69c-25.09,0-41.24,0-58.34,0c-17.1,0-122.27-31.71-122.27-31.71s12.15,8.57,18.06,31.71
									c5.95,23.18,17.89,178.3,17.89,178.3c-7.74,9.57-18.6,13.52-32.38,12.19c0,0-31.84-120.17-44.57-164.82
									c-13.19-46.15-28.92-91.79-25.97-111.89c4.12-28.13,43.9-29,76.7-27.59c32.83,1.41,108.37,4.87,123.72,2.25l-7.95-33.71
									L2723.98,1125.16z"/>
							</defs>
							<clipPath id="SVGID_16_">
								<use xlink:href="#SVGID_14_"  style="overflow:visible;"/>
							</clipPath>
							<path id="XMLID_2635_" class="st20" d="M2692.68,1125.28c4.08,30.42,14.48,45.48,13.44,73.28c-1,27.8-19.35,41.99-72.7,36.12
								c-53.35-5.87-135.33-20.56-142.49-18.1s-4.79,15.85,4.74,55.51c9.53,39.66,42.16,216.13,42.16,216.13"/>
						</g>
						<g>
							<defs>
								<path id="SVGID_17_" d="M2723.98,1125.16c4.04,12.77,13.11,28,18.81,39.91c5.7,11.9,23.26,43.61,13.11,76.98
									c-10.9,35.79-35.12,44.69-60.22,44.69c-25.09,0-41.24,0-58.34,0c-17.1,0-122.27-31.71-122.27-31.71s12.15,8.57,18.06,31.71
									c5.95,23.18,17.89,178.3,17.89,178.3c-7.74,9.57-18.6,13.52-32.38,12.19c0,0-31.84-120.17-44.57-164.82
									c-13.19-46.15-28.92-91.79-25.97-111.89c4.12-28.13,43.9-29,76.7-27.59c32.83,1.41,108.37,4.87,123.72,2.25l-7.95-33.71
									L2723.98,1125.16z"/>
							</defs>
							<clipPath id="SVGID_18_">
								<use xlink:href="#SVGID_17_"  style="overflow:visible;"/>
							</clipPath>
							<path id="XMLID_2634_" class="st21" d="M2705.46,1205.55c0,0-11.78,3.29-21.27-6.95c-9.49-10.24-12.19-57.01-12.19-57.01"/>
						</g>
						<g>
							<defs>
								<path id="SVGID_20_" d="M2723.98,1125.16c4.04,12.77,13.11,28,18.81,39.91c5.7,11.9,23.26,43.61,13.11,76.98
									c-10.9,35.79-35.12,44.69-60.22,44.69c-25.09,0-41.24,0-58.34,0c-17.1,0-122.27-31.71-122.27-31.71s12.15,8.57,18.06,31.71
									c5.95,23.18,17.89,178.3,17.89,178.3c-7.74,9.57-18.6,13.52-32.38,12.19c0,0-31.84-120.17-44.57-164.82
									c-13.19-46.15-28.92-91.79-25.97-111.89c4.12-28.13,43.9-29,76.7-27.59c32.83,1.41,108.37,4.87,123.72,2.25l-7.95-33.71
									L2723.98,1125.16z"/>
							</defs>
							<clipPath id="SVGID_22_">
								<use xlink:href="#SVGID_20_"  style="overflow:visible;"/>
							</clipPath>
							<path id="XMLID_2633_" class="st22" d="M2511.24,1462.79c0,0,23.68,6.45,41.86-15.6"/>
						</g>
					</g>
					<g id="XMLID_2630_">
						<path class="st23" d="M2688.52,753.49c0,0-16.73-17.35-47.9-13.73c-24.84,2.87-42.99,20.6-48.73,42.9
							c-5.7,22.3-4,63.12,26.13,85.93c0,0-9.36,6.24,1.04,18.35c0,0-16.11,4.83-21.27,15.81c-5.2,10.99,0,21.26,3.12,33.62
							c3.12,12.4,4.16,14.31-9.36,30.88c-13.48,16.56-25.09,45.9-6.08,83.47c19.06,37.57,52.14,69.12,98.17,66.12
							c46.53-3.04,99.09-22.05,112.28-110.02s-31.96-108.02-44.44-104.03c0,0,13.73-37.58,9.57-85.97
							c-4.16-48.44-23.43-70.16-39.62-71.74C2697.55,742.71,2688.52,753.49,2688.52,753.49z"/>
					</g>
					<g id="XMLID_2629_">
						<path class="st14" d="M2678.78,927.01c-6.16,2.29-16.44,4.16-21.89,9.36c-5.45,5.2-59.22,107.98-59.22,107.98
							s-49.52-95.17-56.89-106.48c-7.74-11.9-45.49-26.71-52.35-25.05c-8.49,2.08-3.91,15.1-2.16,23.55
							c1,4.83,2.54,18.23,9.53,24.18c6.99,5.91,31.88,10.53,31.88,10.53s44.57,115.14,53.77,132.41
							c5.95,11.15,12.53,11.32,23.6-3.62c10.7-14.44,53.43-83.18,53.43-83.18L2678.78,927.01z"/>
					</g>
					<g id="XMLID_2628_">
						<path class="st24" d="M2678.78,927.01c-9.82,4.37-18.89,4.08-23.85,11.86s-9.24,43.28-9.24,43.28s24.64-5.99,31.17-21.85
							c6.53-15.85,6.74-30.17,6.74-30.17L2678.78,927.01z"/>
					</g>
					<path id="XMLID_2627_" class="st25" d="M2713.07,907.2c0,0,4.24,3.66,8.32,3.66c5.49,1,23.39,5.78,27.01,13.98
						c8.7,14.73-0.21,63.04-5.29,96.95c-3.08,20.68-32.96,67.08-12.57,114.43c0,0-45.94,33.29-92.3,5.2
						c-4.83-28.17,0.83-47.81,1-79.52c-6.58-8.74-13.07-24.8-13.65-35.2c-2.21-38.7,29.34-50.47,53.89-93.54
						c6.87-12.03,12.03-11.44,21.39-20.22C2707,907.2,2713.07,907.2,2713.07,907.2z"/>
					<g id="XMLID_2626_">
						<path class="st14" d="M2727.31,924.01c13.9-10.74,25.14,2.5,31.71,21.89c6.58,19.35,41.28,139.69,44.32,154.63
							c3.04,14.94-10.36,162.91-14.02,171.52c-3.66,8.61-7.45,14.73-21.39,14.73c-13.94,0-63.96,0-63.96,0s3.16-8.03,14.11-11.36
							c10.94-3.37,42.03-4.45,48.11-16.44c6.08-11.94,3.5-149.97,3.5-149.97s-38.54-101.03-47.07-126.12
							C2714.11,957.72,2717.44,931.63,2727.31,924.01z"/>
					</g>
					<g id="XMLID_2625_">
						<path class="st24" d="M2733.8,917.44c-8.24,0-27.05,22.93-11.15,65.37c0,0,20.6-35.87,39.49-27.17
							C2762.14,955.68,2753.86,911.69,2733.8,917.44z"/>
					</g>
					<g id="XMLID_2613_">
						<g id="XMLID_2624_">
							<path class="st14" d="M2696.43,868.38l14.52,15.81l6.41,26.63c0,0-9.11,7.49-12.61,13.98c-4.29,7.91-13.86,26.88-25.34,28.5
								c0,0,1.17-17.14-0.58-26.34c-1.75-9.24-6.99-27.51-6.99-27.51L2696.43,868.38z"/>
						</g>
						<g id="XMLID_2623_">
							<path class="st26" d="M2696.43,868.38c0,0,3.12,14.9,2.58,22.47c-0.54,7.57-5.99,23.3-20.22,36.12
								c-1.75-9.24-6.99-27.51-6.99-27.51L2696.43,868.38z"/>
						</g>
						<g id="XMLID_2622_">
							<path class="st26" d="M2635.38,834.84c-2.71,11.98-13.9,28.75-11.44,31.75c2.04,2.5,11.53,1.91,11.53,1.91
								s6.99-8.28,4.62-19.89C2637.75,837,2635.38,834.84,2635.38,834.84z"/>
						</g>
						<g id="XMLID_2621_">
							<path class="st14" d="M2659.68,759.98c-13.48,1.5-27.05,24.47-26.8,45.36c0.25,20.89,4.2,32.25,3.12,47.02
								s-1,28.96,4.04,44.44c3.37,10.28,12.11,12.61,23.76,9.15c10.7-3.16,25.26-15.77,28.63-19.72c3.37-3.95,4-17.85,4-17.85
								s15.94-2.87,23.22-20.76C2726.93,829.76,2725.6,752.61,2659.68,759.98z"/>
						</g>
						<g id="XMLID_2620_">
							<path class="st23" d="M2696.43,868.38c0,0,14.52-6.99,13.23-26.8c-1.33-20.35-23.68-21.1-22.76-3.16
								c0,0-15.61-3.79-25.14-17.48c-17.85-25.76-19.89-46.73-19.89-46.73c3.79-32.04,46.61-20.72,46.61-20.72
								s21.68-11.53,40.16,3.58c13.23,10.82,19.93,49.64,9.24,81.97c-10.7,32.25-26.97,45.19-26.97,45.19L2696.43,868.38z"/>
						</g>
						<g id="XMLID_2614_">
							<g id="XMLID_2617_">
								<path id="XMLID_2619_" class="st23" d="M2647.11,840.04c0.12-2.66,1.96-4.66,4.12-4.54s3.79,2.41,3.7,5.08
									c-0.12,2.66-1.96,4.66-4.12,4.54S2646.99,842.7,2647.11,840.04z"/>
								<path id="XMLID_2618_" class="st23" d="M2643.91,827.47l17.85,6.95c0,0-0.37-7.49-6.53-9.82
									C2647.74,821.81,2643.91,827.47,2643.91,827.47z"/>
							</g>
							<g id="XMLID_2616_">
								<path class="st26" d="M2700.46,837.33c-2.41-1.08-6.08-0.92-8.11,1.12c-0.75,0.75,0.54,2.29,1.29,1.96
									c4.12-1.87,9.16-2.12,11.19,3.79c0.12,0.33,0.29,0,0.25-0.21C2704.54,840.66,2703.04,838.46,2700.46,837.33z"/>
							</g>
							<g id="XMLID_2615_">
								<path class="st26" d="M2698.55,837.79c-0.46-0.25-1.5,1.12-1.42,1.54c0.67,0.37,1.75,1.33,2.25,2.41
									c0.87,1.87,1.12,3.54,0.96,5.7c-0.33,5.04-2.62,8.66-6.62,9.78c-0.08,0-0.21,0.29-0.08,0.29c3.5,1.08,7.41-3.37,8.24-7.16
									C2702.75,846.11,2702.54,840.12,2698.55,837.79z"/>
							</g>
						</g>
					</g>
					<g id="XMLID_2612_">
						<path class="st14" d="M2679.49,933.16c0.25,5.74-8.57,18.35-6.41,27.09c2.16,8.74,16.9,9.9,24.89,0
							c7.95-9.9,12.61-40.95,23.47-49.39c0,0-3.7,0-5.37-5.37L2679.49,933.16z"/>
					</g>
					<g id="XMLID_2611_">
						<path class="st9" d="M2520.69,903.25c0,0-4.33,47.02,10.45,84.64c1.46,3.7,0.21,8.2-2.75,10.19l-18.02,12.32
							c-3.87,2.62-8.66-0.08-9.49-5.41c-2.83-18.43-6.7-58.88,3.54-104.03L2520.69,903.25z"/>
					</g>
					<path id="XMLID_2610_" class="st14" d="M2501.83,915.4c4.58,1.58,11.15,5.08,11.36,10.4s-6.99,5.58-6.99,5.58
						s5.08,2.79,5.49,6.7c0.37,3.95-2.83,7.86-7.53,7.86c0,0,4.87,2.04,3.37,7.41c-1.5,5.37-8.66,0.96-10.07,4.87
						c0,0-4.24-5.08-4.62-16.44C2492.43,930.42,2501.83,915.4,2501.83,915.4z"/>
					<path id="XMLID_2609_" class="st14" d="M2540.79,937.87c-4.33-10.28-8.61-17.73-18.48-22.47c-8.41-4.04-12.4-11.98-14.57-7.95
						c-2.21,4.04,3.75,16.81,12.94,20.68L2540.79,937.87z"/>
					<g id="XMLID_2608_">
						<path class="st9" d="M2492.76,901.66l37.25,5.78c9.57,1.41,15.48-58.92,5.91-60.34l-36.58-7.57L2492.76,901.66z"/>
					</g>
					<path id="XMLID_2607_" class="st7" d="M2499.34,839.54c-13.61-1.87-60.34-28.71-70.5-77.02
						c-38.33-5.99-56.31,167.9-17.98,173.85c10.57-30.04,63.09-37.62,81.9-34.7C2500.05,902.83,2506.62,840.7,2499.34,839.54z"/>
					<g id="XMLID_2606_">
						<path class="st27" d="M2654.94,714.5c11.86,3.45,29.38,20.72,33.54,38.99"/>
					</g>
				</g>
				<g id="XMLID_2599_">
					<g id="XMLID_2604_">
						<path class="st28" d="M1505.07,1275c30.75,34.37,64.17,57.71,102.91,48.69c54.56-12.73,97.17-81.02,97.17-81.02
							s14.07,22.51,14.07,24.76c0,2.25-36.04,90.01-101.46,108.02c-65.38,18.02-124.18-39.49-124.18-39.49L1505.07,1275z"/>
					</g>
					<path id="XMLID_2603_" class="st7" d="M2065.29,1748.95c25.84,44.73,74.32,59.84,114.44,35.58l72.78-44.02
						c13.82-8.36,30.55-2.62,38.83,13.36l131.59,253.75c9.28,17.89,4.49,41.69-10.57,52.14c-42.53,29.54-130.42,79.56-227.22,69.87
						c-135.83-13.57-224.26-168.61-373.83-457.06c-149.61-288.49-226.55-452.44-179.07-609.23
						c33.83-111.68,107.95-188.25,147.78-223.04c14.11-12.32,33.67-7.57,42.95,10.32l131.59,253.75
						c8.28,15.94,5.45,36.99-6.58,48.81l-63.34,62.29c-34.87,34.29-44.28,94.62-22.18,142.31L2065.29,1748.95z"/>
					<path id="XMLID_2602_" class="st29" d="M1894.67,1205.59l53.31-52.43c12.03-11.82,14.86-32.87,6.58-48.81l-69.54-134.15
						l-62.84-120.88c-9.57-16.77-28.42-21.06-42.11-9.07c-13.52,11.82-31,28.5-49.48,49.68L1894.67,1205.59z"/>
					<path id="XMLID_2601_" class="st29" d="M2354.77,2093.7c23.43-11.61,43.15-23.93,57.6-33.95
						c14.61-10.15,19.43-32.79,11.24-50.47l-135.21-260.07c-8.86-12.28-23.51-16.15-35.87-8.7l-61.88,37.45L2354.77,2093.7z"/>
					<g id="XMLID_2600_">
						<path class="st3" d="M1507.03,1276.92l24.89,22.89c0,0,11.24,42.28-7.74,64.25l-32.96-24.51L1507.03,1276.92z"/>
					</g>
				</g>
				<g id="XMLID_2596_">
					<path id="XMLID_2598_" class="st30" d="M1077.23,2141.93c0,0,24.59-22.55,40.32-62.96c16.31-41.86,1.79-78.4-21.06-73.07
						c-24.34,5.66-27.72-18.77-34.42-49.68c-8.03-37.08-47.11-89.88-78.99-84.6c-41.16,6.82-15.15,60.88-10.94,80.48
						c4.2,19.6,14.61,42.15-10.94,45.23c-23.22,2.79-33.42,28.71-15.31,55.22c17.23,25.22,35.96,24.84,36.79,50.43
						c0.83,25.59,13.82,32.79,24.76,38.95C1007.44,2141.93,1077.23,2141.93,1077.23,2141.93z"/>
					<path id="XMLID_2597_" class="st6" d="M1000.28,1916.36c0,0,56.06,89.8,41.91,225.57"/>
				</g>
				<g id="XMLID_2593_">
					<path id="XMLID_2595_" class="st5" d="M1577.98,2141.93c0,0,15.9-26.26,6.33-64c-12.36-48.81-49.23-71.32-35.96-103.28
						c11.07-26.55,44.15-13.11,61.67,22.68c16.85,34.41,18.14,106.9-8.45,144.6H1577.98z"/>
					<path id="XMLID_2594_" class="st6" d="M1574.32,1988.59c0,0,50.81,67.41,17.52,153.34"/>
				</g>
				<g id="XMLID_2590_">
					<path id="XMLID_2592_" class="st31" d="M1615.6,2141.93c0,0,38.37-28.75,59.38-88.17c21.02-59.42,21.93-128.91,0-153.59
						c-20.47-23.05-44.74-8.99-51.15,31.38c-6.41,40.36,8.24,142.69-34.71,210.35h26.47V2141.93z"/>
					<path id="XMLID_2591_" class="st6" d="M1655.76,1911.41c0,0,6.41,60.84-8.24,125.71c-14.61,64.87-42.03,104.82-42.03,104.82"/>
				</g>
				<g id="XMLID_2587_">
					<path id="XMLID_2589_" class="st30" d="M2155.68,2141.93c0,0,0.83-83.06-52.85-160.45c-53.68-77.4-115.11-105.11-168.17-81.64
						c-39.49,17.48-29.34,73.61,2.95,97.5c38.24,28.3,181.4,39.74,186.52,144.6H2155.68z"/>
					<path id="XMLID_2588_" class="st6" d="M1940.36,1937.37c72.95-5.08,184.6,77.4,199.96,204.56"/>
				</g>
				<g id="XMLID_2584_">
					<path id="XMLID_2586_" class="st32" d="M2172.33,2141.93c0,0,35.33-46.23,28.51-135.28c-6.82-89.05-70.62-111.14-82.06-68.08
						c-9.03,33.87,53.1,112.73,30.96,203.35C2149.73,2141.93,2172.33,2141.93,2172.33,2141.93z"/>
					<path id="XMLID_2585_" class="st6" d="M2149.69,1944.86c13.69,21.76,39.99,110.73,13.15,197.07"/>
				</g>
				<g id="XMLID_2583_">
					<path class="st33" d="M3279.54,2153.04H907.48c-4.99,0-9.07-4.99-9.07-11.11l0,0c0-6.16,4.04-11.11,9.07-11.11h2372.06
						c4.99,0,9.07,4.99,9.07,11.11l0,0C3288.61,2148.09,3284.53,2153.04,3279.54,2153.04z"/>
				</g>
				<g id="XMLID_2582_">
					<path class="st34" d="M2932.59,2430.51H1504.95c-111.32,0-201.58-90.26-201.58-201.57v-75.86h1830.81v75.86
						C3134.18,2340.25,3043.91,2430.51,2932.59,2430.51z"/>
				</g>
			</g>
			<g id="XMLID_2534_">
				<g id="XMLID_2555_">
					<g id="XMLID_2573_">
						<g id="XMLID_2580_">
							<path class="st35" d="M1559.42,2119c1.46,3.37,0.33,10.24-10.74,15.9c-11.07,5.66-31.09,3.25-39.08,1.33
								c-7.99-1.91-12.82-4.74-24.59-1.75c-11.78,3.04-31.09,1.71-36.95-4.37c-2.04-2.87-0.67-8.82-0.67-8.82L1559.42,2119z"/>
						</g>
						<g id="XMLID_2575_">
							<g>
								<path id="SVGID_19_" class="st36" d="M1453.76,2076.69c-1.62,9.9-8.2,33.29-6.33,44.61c8.28,8.61,26.01,9.2,39.28,5.08
									c13.28-4.12,22.64,4.24,39.33,5.45c16.35,1.17,30-4.41,33.33-12.82c3.66-9.2-24.93-16.27-44.4-23.64
									c-21.81-8.24-33.04-21.39-33.04-21.39L1453.76,2076.69z"/>
							</g>
							<g>
								<defs>
									<path id="SVGID_23_" d="M1453.76,2076.69c-1.62,9.9-8.2,33.29-6.33,44.61c8.28,8.61,26.01,9.2,39.28,5.08
										c13.28-4.12,22.64,4.24,39.33,5.45c16.35,1.17,30-4.41,33.33-12.82c3.66-9.2-24.93-16.27-44.4-23.64
										c-21.81-8.24-33.04-21.39-33.04-21.39L1453.76,2076.69z"/>
								</defs>
								<clipPath id="SVGID_24_">
									<use xlink:href="#SVGID_23_"  style="overflow:visible;"/>
								</clipPath>
								<g id="XMLID_2579_" class="st37">
									<path class="st38" d="M1488.55,2095.87c0,0,3.91-13.48,9.16-17.85"/>
								</g>
							</g>
							<g>
								<defs>
									<path id="SVGID_25_" d="M1453.76,2076.69c-1.62,9.9-8.2,33.29-6.33,44.61c8.28,8.61,26.01,9.2,39.28,5.08
										c13.28-4.12,22.64,4.24,39.33,5.45c16.35,1.17,30-4.41,33.33-12.82c3.66-9.2-24.93-16.27-44.4-23.64
										c-21.81-8.24-33.04-21.39-33.04-21.39L1453.76,2076.69z"/>
								</defs>
								<clipPath id="SVGID_26_">
									<use xlink:href="#SVGID_25_"  style="overflow:visible;"/>
								</clipPath>
								<g id="XMLID_2578_" class="st39">
									<path class="st38" d="M1503.37,2103.11c0,0,3.91-13.48,9.16-17.85"/>
								</g>
							</g>
							<g>
								<defs>
									<path id="SVGID_27_" d="M1453.76,2076.69c-1.62,9.9-8.2,33.29-6.33,44.61c8.28,8.61,26.01,9.2,39.28,5.08
										c13.28-4.12,22.64,4.24,39.33,5.45c16.35,1.17,30-4.41,33.33-12.82c3.66-9.2-24.93-16.27-44.4-23.64
										c-21.81-8.24-33.04-21.39-33.04-21.39L1453.76,2076.69z"/>
								</defs>
								<clipPath id="SVGID_28_">
									<use xlink:href="#SVGID_27_"  style="overflow:visible;"/>
								</clipPath>
								<g id="XMLID_2577_" class="st40">
									<path class="st38" d="M1518.18,2110.31c0,0,3.91-13.48,9.16-17.85"/>
								</g>
							</g>
						</g>
						<g id="XMLID_2574_">
							<path class="st14" d="M1453.76,2037.11v39.57c0,0,3.75,1.54,5.29,3.79c1.54,2.25,3.7,9.7,6.33,9.86
								c10.4,0.54,16.56-16.31,16.56-16.31l3.91-35.95L1453.76,2037.11z"/>
						</g>
					</g>
					<g id="XMLID_2565_">
						<g id="XMLID_2572_">
							<path class="st8" d="M1193.92,2129.28c-2.29,2.62-7.95,3.12-15.31-8.49s-10.78-35.95-11.36-45.86
								c-0.58-9.95,0.33-16.39-5.16-29.54c-5.49-13.15-9.57-36.33-6.33-44.86c1.71-3.16,6.74-3.12,6.74-3.12L1193.92,2129.28z"/>
						</g>
						<g id="XMLID_2567_">
							<g>
								<path id="SVGID_21_" class="st24" d="M1199.24,1993.05c-8.24,0.71-28.3-0.92-36.75,4.33c-4.58,12.07-0.33,33.21,6.41,47.85
									c6.74,14.65,2.66,27.92,6.12,47.98c3.41,19.68,11.4,34.37,18.89,36.08c8.16,1.87,6.2-33.83,6.82-58.84
									c0.71-27.96,8.07-44.77,8.07-44.77L1199.24,1993.05z"/>
							</g>
							<g>
								<defs>
									<path id="SVGID_29_" d="M1199.24,1993.05c-8.24,0.71-28.3-0.92-36.75,4.33c-4.58,12.07-0.33,33.21,6.41,47.85
										c6.74,14.65,2.66,27.92,6.12,47.98c3.41,19.68,11.4,34.37,18.89,36.08c8.16,1.87,6.2-33.83,6.82-58.84
										c0.71-27.96,8.07-44.77,8.07-44.77L1199.24,1993.05z"/>
								</defs>
								<clipPath id="SVGID_30_">
									<use xlink:href="#SVGID_29_"  style="overflow:visible;"/>
								</clipPath>
								<g id="XMLID_2571_" class="st41">
									<path class="st42" d="M1193.33,2039.28c0,0,11.65,1.08,16.44,6.12"/>
								</g>
							</g>
							<g>
								<defs>
									<path id="SVGID_31_" d="M1199.24,1993.05c-8.24,0.71-28.3-0.92-36.75,4.33c-4.58,12.07-0.33,33.21,6.41,47.85
										c6.74,14.65,2.66,27.92,6.12,47.98c3.41,19.68,11.4,34.37,18.89,36.08c8.16,1.87,6.2-33.83,6.82-58.84
										c0.71-27.96,8.07-44.77,8.07-44.77L1199.24,1993.05z"/>
								</defs>
								<clipPath id="SVGID_32_">
									<use xlink:href="#SVGID_31_"  style="overflow:visible;"/>
								</clipPath>
								<g id="XMLID_2570_" class="st43">
									<path class="st42" d="M1191.59,2058.71c0,0,11.65,1.08,16.44,6.12"/>
								</g>
							</g>
							<g>
								<defs>
									<path id="SVGID_33_" d="M1199.24,1993.05c-8.24,0.71-28.3-0.92-36.75,4.33c-4.58,12.07-0.33,33.21,6.41,47.85
										c6.74,14.65,2.66,27.92,6.12,47.98c3.41,19.68,11.4,34.37,18.89,36.08c8.16,1.87,6.2-33.83,6.82-58.84
										c0.71-27.96,8.07-44.77,8.07-44.77L1199.24,1993.05z"/>
								</defs>
								<clipPath id="SVGID_34_">
									<use xlink:href="#SVGID_33_"  style="overflow:visible;"/>
								</clipPath>
								<g id="XMLID_2569_" class="st44">
									<path class="st42" d="M1189.84,2078.18c0,0,11.65,1.08,16.44,6.12"/>
								</g>
							</g>
						</g>
						<g id="XMLID_2566_">
							<path class="st14" d="M1220.05,1974.65l-20.81,18.35c0,0-0.21,4.83-1.58,7.24c-1.37,2.46-6.66,6.95-6.08,10.07
								c2.33,12.44,17.23,15.27,17.23,15.27l28.92-18.93L1220.05,1974.65z"/>
						</g>
					</g>
					<g id="XMLID_2564_">
						<path class="st9" d="M1516.02,1473.45c-36.12,0-62.96,3.33-62.96,3.33c-11.53,6.2-31.38,38.41-37.2,58.88
							c-5.83,20.47,2.83,49.02,5.87,66.62c16.94,97.99,34.29,166.11,40.87,204.94c4.04,23.76-10.32,27.55-10.45,65.2
							c-0.21,53.89,1.62,168.78,1.62,168.78s13.52,9.65,31.42,3.04c0,0,27.09-189.5,30.09-211.18c4.83-35.16,6.49-49.93,7.03-110.77
							C1523.01,1636.73,1516.02,1473.45,1516.02,1473.45z"/>
					</g>
					<g id="XMLID_2563_">
						<path class="st18" d="M1515.6,1547.68c-6.03,34.7-46.57,76.4-46.57,76.4c-4.58,16.15-63.96,265.65-73.87,275.13
							c-9.9,9.4-157.43,107.48-157.43,107.48c-7.12-4.66-11.4-11.78-14.02-18.1c-2-4.95-2.95-9.4-3.37-11.86
							c-0.12-0.83-0.25-1.41-0.25-1.71c-0.04-0.21-0.04-0.37-0.04-0.37s75.53-98.08,93.34-108.52
							c19.43-11.4,30.38-14.52,30.38-14.52v-0.08c20.31-115.89,19.68-206.48,36.12-270.56c3.04-11.86,6.2-22.47,9.53-31.5
							c4.24-11.36,7.45-20.85,10.03-28.92c1.08-3.5,2.04-6.66,2.95-9.7c0.92-3.04,1.71-5.87,2.37-8.45c0.5-1.79,0.92-3.5,1.33-5.03
							c1.87-7.28,3.2-13.11,4.66-18.68c0.67-2.46,1.33-4.83,2.04-7.28c0.42-1.21,0.79-2.46,1.21-3.62c0.42-1.25,0.83-2.54,1.33-3.79
							h0.04v0.08l28.21,25.8l13.61,12.36L1515.6,1547.68z"/>
					</g>
					<g id="XMLID_2562_">
						<path class="st19" d="M1457.21,1502.28c-3.99,6.28-9.86,14.73-17.23,22.68c-20.97,22.39-33.62,57.22-44.78,129.37
							c-12.57,81.31-33.71,202.19-36.25,209.64c-2.5,7.49-21.14,4.66-55.18,35.2c-25.72,23.05-63.09,70.99-80.03,89.38
							c-2-4.95-2.95-9.4-3.37-11.86c-0.12-0.83-0.17-1.41-0.25-1.71c-0.04-0.21-0.04-0.37-0.04-0.37s75.53-98.08,93.34-108.52
							c19.43-11.4,30.38-14.52,30.38-14.52v-0.08c19.39-115.89,19.68-206.48,36.12-270.56c3.04-11.86,6.2-22.39,9.61-31.42
							c4.24-11.36,7.41-20.85,9.95-28.96c1.17-3.5,2.12-6.74,2.95-9.7c0.92-3.04,1.71-5.87,2.37-8.45c0.5-1.79,0.92-3.5,1.33-5.03
							c1.87-7.28,3.2-13.11,4.66-18.68c0.67-2.46,1.33-4.83,2.04-7.28c0.42-1.21,0.79-2.46,1.21-3.62c0.42-1.25,0.92-2.46,1.37-3.7
							V1464l28.21,25.88L1457.21,1502.28z"/>
					</g>
					<path id="XMLID_2561_" class="st19" d="M1515.6,1547.68c0,0-18.48,29.67-69.21,32c-35.08,1.62-57.39-15.65-57.39-15.65
						l13.69-26.38L1515.6,1547.68z"/>
					<g id="XMLID_2556_">
						<g>
							<defs>
								<path id="SVGID_35_" d="M1237.74,2006.74c0,0,147.57-98.12,157.47-107.52s69.25-258.95,73.83-275.05
									c0,0,43.7-43.69,49.73-78.35l-101.04-81.18c-7.74,20.39-7.66,34-28.26,84.97c-19.64,48.69-26.76,185.84-45.65,302.06
									c0,0-10.94,3.16-30.38,14.56c-17.85,10.44-93.38,108.52-93.38,108.52S1222.17,1996.38,1237.74,2006.74z"/>
							</defs>
							<clipPath id="SVGID_36_">
								<use xlink:href="#SVGID_35_"  style="overflow:visible;"/>
							</clipPath>
							<path id="XMLID_2560_" class="st45" d="M1494.29,1479.44c-21.27,33.5-48.4,53.8-59.63,76.73
								c-11.28,22.97-17.56,72.61-32.17,163.32c-14.52,90.09-27.76,151.47-31.75,156.87c-4.04,5.41-28.92,10.82-67.83,42.82
								c-38.91,32.04-84.02,83.39-84.02,83.39"/>
						</g>
						<g>
							<defs>
								<path id="SVGID_37_" d="M1237.74,2006.74c0,0,147.57-98.12,157.47-107.52s69.25-258.95,73.83-275.05
									c0,0,43.7-43.69,49.73-78.35l-101.04-81.18c-7.74,20.39-7.66,34-28.26,84.97c-19.64,48.69-26.76,185.84-45.65,302.06
									c0,0-10.94,3.16-30.38,14.56c-17.85,10.44-93.38,108.52-93.38,108.52S1222.17,1996.38,1237.74,2006.74z"/>
							</defs>
							<clipPath id="SVGID_38_">
								<use xlink:href="#SVGID_37_"  style="overflow:visible;"/>
							</clipPath>
							<path id="XMLID_2559_" class="st46" d="M1470.74,1558.75c0,0-8.45,57.05-49.81,47.52"/>
						</g>
						<g>
							<defs>
								<path id="SVGID_39_" d="M1237.74,2006.74c0,0,147.57-98.12,157.47-107.52s69.25-258.95,73.83-275.05
									c0,0,43.7-43.69,49.73-78.35l-101.04-81.18c-7.74,20.39-7.66,34-28.26,84.97c-19.64,48.69-26.76,185.84-45.65,302.06
									c0,0-10.94,3.16-30.38,14.56c-17.85,10.44-93.38,108.52-93.38,108.52S1222.17,1996.38,1237.74,2006.74z"/>
							</defs>
							<clipPath id="SVGID_40_">
								<use xlink:href="#SVGID_39_"  style="overflow:visible;"/>
							</clipPath>
							<path id="XMLID_2558_" class="st47" d="M1228.04,1956.89c0.17,15.31,8.95,37.49,24.93,49.35"/>
						</g>
					</g>
				</g>
				<g id="XMLID_2551_">
					<g id="XMLID_2552_">
						<g id="XMLID_2554_">
							<polygon class="st14" points="1464.25,1218.66 1499.25,1255.44 1519.26,1197.06 1477.65,1167.56 							"/>
						</g>
						<g id="XMLID_2553_">
							<path class="st26" d="M1513.35,1214.33c0,0-41.24-14.19-35.71-46.77l41.66,29.5L1513.35,1214.33z"/>
						</g>
					</g>
				</g>
				<g id="XMLID_2550_">
					<path class="st2" d="M1498.41,1253.99c8.03,8.32,13.19,20.02,14.36,32.83c1.91,20.72,3.41,51.76,4.83,96.87
						c1.29,40.95,4.66,159.66,4.66,159.66s-25.51,20.56-68.42,16.31c-40.95-4.04-58.64-28.75-58.64-28.75s4.29-166.99,17.73-232.73
						c19.89-67.78,51.31-79.56,51.31-79.56L1498.41,1253.99z"/>
				</g>
				<g id="XMLID_2539_">
					<g id="XMLID_2549_">
						<path class="st26" d="M1540.15,1119.79c2.16,4.58,13.44,24.01,17.1,29.63c3.66,5.62-10.94,7.12-10.94,7.12L1540.15,1119.79z"
							/>
					</g>
					<g id="XMLID_2548_">
						<path class="st14" d="M1477.65,1167.56c0,0,2.37,6.66,4.83,11.65c2.46,4.99,36.75,22.05,45.82,23.43
							c9.03,1.37,21.06-0.92,18.69-37.99c-2.41-37.08-10.07-69.16-30.25-85.97c-20.18-16.77-48.48,1.54-60.72,25.3
							C1443.73,1127.78,1456.76,1174.43,1477.65,1167.56z"/>
					</g>
					<g id="XMLID_2547_">
						<path class="st23" d="M1477.65,1167.56L1477.65,1167.56l-4.45,17.06c0,0-3.45,2.04-12.19-11.32
							c-9.57-14.61-27.05-39.53-25.3-55.34c2.25-20.76,21.64-28.25,21.64-28.25s9.9-38.37,48.56-58.76s55.76,13.94,26.01,39.24
							c0,0,20.68,12.69,7.62,22.3c-13.07,9.61-50.35,8.41-50.35,8.41s18.31,8.61,12.86,14.94c-5.45,6.37-29.09,3.74-29.09,3.74
							l2.95,14.61c0,0-9.65-3.62-14.86,4.04C1454.76,1147.42,1464.33,1172.39,1477.65,1167.56z"/>
					</g>
					<g id="XMLID_2546_">
						<path class="st27" d="M1453.47,1045.06c0,0-11.53,30.63,10.11,51.18c0,0-21.6-0.83-26.18-25.97"/>
					</g>
					<g id="XMLID_2540_">
						<g id="XMLID_2543_">
							<path id="XMLID_2545_" class="st23" d="M1524.96,1127.16c-0.67-2.37-2.79-3.66-4.74-2.83c-1.96,0.83-3,3.41-2.33,5.83
								c0.67,2.37,2.79,3.66,4.74,2.83C1524.59,1132.15,1525.63,1129.53,1524.96,1127.16z"/>
							<path id="XMLID_2544_" class="st23" d="M1525.3,1114.59l-14.94,12.03c0,0-1.21-6.99,3.95-11.07
								C1520.55,1110.6,1525.3,1114.59,1525.3,1114.59z"/>
						</g>
						<g id="XMLID_2542_">
							<path class="st26" d="M1465.7,1142.8c2-1.75,5.37-2.75,7.66-1.54c0.83,0.46,0,2.29-0.75,2.21c-4.16-0.42-8.82,0.92-9.45,6.99
								c-0.04,0.33-0.25,0.08-0.29-0.12C1462.67,1147.17,1463.58,1144.68,1465.7,1142.8z"/>
						</g>
						<g id="XMLID_2541_">
							<path class="st26" d="M1467.58,1142.64c0.37-0.37,1.62,0.58,1.62,0.96c-0.54,0.58-1.33,1.75-1.54,2.95
								c-0.42,2-0.29,3.58,0.29,5.53c1.37,4.49,4.24,7.12,8.16,6.87c0.08,0,0.25,0.21,0.12,0.25c-2.95,2.08-7.53-0.71-9.07-3.99
								C1465.45,1151.62,1464.37,1146.05,1467.58,1142.64z"/>
						</g>
					</g>
				</g>
				<g id="XMLID_2538_">
					<path class="st3" d="M1449.1,1255.82c-8.45,5.49-19.56,35.45-11.69,67.87c7.91,32.37,18.14,65.79,18.14,65.79
						s40.74-11.82,51.48-43.69c0,0-14.4-43.19-21.1-60.67C1479.23,1267.64,1470.49,1241.92,1449.1,1255.82z"/>
				</g>
				<g id="XMLID_2537_">
					<path class="st3" d="M1491.75,1443.82c9.16,11.24,21.6,23.55,28.55,26.92c-0.54-18.89-1.12-34.83-1.62-52.31l-30.5-49.73
						l-20.06-6.66l-7.2,25.51C1460.88,1387.6,1477.15,1425.88,1491.75,1443.82z"/>
				</g>
				<g id="XMLID_2536_">
					<path class="st14" d="M1458.71,1255.44c-19.27,6.28-25.84,40.2-6.45,92.79c18.6,50.39,48.56,96.54,67,112.27
						c18.44,15.73,89.76,10.57,149.48-11.11c0,0,34-14.98,43.49-25.26c21.06-22.93,22.1-53.35,6.62-48.85
						c-15.48,4.54-39.91,25.09-39.91,25.09s-6.49-15.69-11.19-27.88c0,0-4.16,1.33-5.66,12.19c-1.46,10.86-1.33,25.97-3.91,28.17
						c-6.87,5.87-102.5,15.73-113.94,1.91c-12.94-15.65-31.67-57.17-44.99-95.54C1484.51,1276.92,1478.44,1248.99,1458.71,1255.44z"
						/>
				</g>
				<g id="XMLID_2535_">
					<path class="st2" d="M1452.26,1250.16c-8.45,5.49-19.56,35.45-11.69,67.87c7.91,32.37,18.14,65.79,18.14,65.79
						s38.24-7.12,54.52-34.08c0,0-17.4-52.8-24.14-70.28S1473.65,1236.26,1452.26,1250.16z"/>
				</g>
			</g>
			<g>
				<g>
					<path class="st0" d="M4143.51,848.15c9.28,0,9.32-14.44,0-14.44C4134.23,833.71,4134.19,848.15,4143.51,848.15L4143.51,848.15z
						"/>
				</g>
			</g>
			<g>
				<g>
					<path class="st0" d="M2104.16,2918.32c9.28,0,9.32-14.44,0-14.44S2094.84,2918.32,2104.16,2918.32L2104.16,2918.32z"/>
				</g>
			</g>
			<g>
				<g>
					<path class="st0" d="M2251.19,2530.83c9.28,0,9.32-14.44,0-14.44C2241.87,2516.35,2241.87,2530.83,2251.19,2530.83
						L2251.19,2530.83z"/>
				</g>
			</g>
			<g>
				<g>
					<path class="st0" d="M1876.53,2469.12c97.3,1.58,194.59,3.16,291.85,4.74c27.59,0.46,55.18,0.92,82.81,1.33
						c9.28,0.17,9.32-14.31,0-14.44c-97.3-1.58-194.59-3.16-291.85-4.74c-27.59-0.46-55.18-0.92-82.81-1.33
						C1867.21,2454.52,1867.21,2468.96,1876.53,2469.12L1876.53,2469.12z"/>
				</g>
			</g>
			<g>
				<g>
					<path class="st0" d="M2322.31,2474.74c9.28,0,9.32-14.44,0-14.44C2313.03,2460.26,2313.03,2474.74,2322.31,2474.74
						L2322.31,2474.74z"/>
				</g>
			</g>
		</g>
	</g>
</g>
</svg>
